<?xml version="1.0" encoding="utf-8"?>
<!-- Generator: Adobe Illustrator 16.0.0, SVG Export Plug-In . SVG Version: 6.00 Build 0)  -->
<!DOCTYPE svg PUBLIC "-//W3C//DTD SVG 1.1//EN" "http://www.w3.org/Graphics/SVG/1.1/DTD/svg11.dtd">
<svg version="1.1" id="Layer_1" xmlns="http://www.w3.org/2000/svg" xmlns:xlink="http://www.w3.org/1999/xlink" x="0px" y="0px"
	 width="87.5px" height="87.5px" viewBox="0 0 87.5 87.5" enable-background="new 0 0 87.5 87.5" xml:space="preserve">
<g>
	<g>
		<path fill-rule="evenodd" clip-rule="evenodd" fill="none" d="M46.11,104.25c-18.023,0-36.047-0.112-54.068,0.077
			c-4.573,0.048-6.927-0.061-6.862-6.135c0.394-36.396,0.312-72.798,0.057-109.197c-0.034-4.891,0.818-6.068,5.931-6.026
			c36.397,0.292,72.797,0.199,109.196,0.093c4.125-0.01,6.422-0.336,6.353,5.591c-0.432,36.748-0.314,73.503-0.089,110.255
			c0.027,4.462-0.764,5.57-5.391,5.482C82.867,104.047,64.487,104.25,46.11,104.25z M32.932,0.25
			C19.387,0.339,7.083,8.594,2.556,21.217c-4.733,13.194-2.242,25.195,7.622,35.231c9.479,9.644,23.757,12.249,36.296,6.501
			c4.974-2.28,7.786-4.627,12.053,2.306c4.691,7.622,12.701,13.165,19.043,19.826c3.063,3.215,5.158,2.314,7.85-0.423
			c2.602-2.644,2.432-4.601-0.125-7.076c-6.858-6.647-12.86-14.481-20.598-19.818c-5.426-3.744-4.346-5.715-2.207-10.304
			C73.046,24.82,57.408,0.085,32.932,0.25z"/>
		<path fill-rule="evenodd" clip-rule="evenodd" fill="white" d="M32.932,0.25C57.408,0.085,73.046,24.82,62.49,47.46
			c-2.139,4.589-3.219,6.56,2.207,10.304c7.738,5.337,13.74,13.171,20.598,19.818c2.557,2.476,2.726,4.433,0.125,7.076
			c-2.692,2.737-4.787,3.638-7.85,0.423c-6.342-6.661-14.352-12.204-19.043-19.826c-4.267-6.933-7.079-4.586-12.053-2.306
			c-12.54,5.748-26.817,3.143-36.296-6.501C0.313,46.412-2.178,34.411,2.556,21.217C7.083,8.594,19.387,0.339,32.932,0.25z
			 M10.542,32.411c-0.317,12.682,9.617,23.063,22.255,23.261c12.633,0.195,22.956-9.918,23.009-22.539
			c0.051-12.212-9.586-22.269-21.763-22.707C21.363,9.968,10.858,19.796,10.542,32.411z"/>
		<path fill-rule="evenodd" clip-rule="evenodd" fill="none" d="M10.542,32.411c0.316-12.615,10.821-22.443,23.501-21.985
			C46.22,10.864,55.857,20.92,55.806,33.133C55.753,45.754,45.43,55.867,32.797,55.672C20.159,55.475,10.225,45.093,10.542,32.411z"
			/>
	</g>
</g>
</svg>
