<?xml version="1.0" encoding="utf-8"?>
<!-- Generator: Adobe Illustrator 16.0.0, SVG Export Plug-In . SVG Version: 6.00 Build 0)  -->
<!DOCTYPE svg PUBLIC "-//W3C//DTD SVG 1.1//EN" "http://www.w3.org/Graphics/SVG/1.1/DTD/svg11.dtd">
<svg version="1.1" id="Layer_1" xmlns="http://www.w3.org/2000/svg" xmlns:xlink="http://www.w3.org/1999/xlink" x="0px" y="0px"
	 width="20px" height="20px" viewBox="0 0 584 584" enable-background="new 0 0 584 584" xml:space="preserve">
<g>
	<g>
		<path fill-rule="evenodd" clip-rule="evenodd" fill="#4284F3" d="M219.104,194.982c0-24.921-0.057-49.842,0.03-74.763
			c0.032-9.369,2.109-18.371,5.771-26.997c3.728-8.779,8.976-16.538,15.761-23.24c9.815-9.694,21.473-16.032,34.869-19.315
			c7.708-1.889,15.56-2.168,23.329-1.539c13.89,1.124,26.545,6.001,37.682,14.496c9.72,7.414,17.247,16.644,22.305,27.792
			c3.214,7.086,5.317,14.482,6.121,22.282c0.388,3.763,0.318,7.495,0.32,11.237c0.033,48.167,0.145,96.334-0.062,144.5
			c-0.054,12.52-3.397,24.358-9.792,35.304c-3.586,6.137-7.809,11.708-12.958,16.537c-8.49,7.959-18.297,13.603-29.546,16.913
			c-8.697,2.56-17.521,3.321-26.431,2.741c-8.369-0.545-16.431-2.638-24.167-6.116c-9-4.047-16.923-9.553-23.575-16.743
			c-9.124-9.861-15.252-21.364-18.026-34.616c-1.27-6.063-1.664-12.149-1.651-18.316
			C219.134,241.753,219.104,218.368,219.104,194.982z"/>
		<path fill-rule="evenodd" clip-rule="evenodd" fill="#E94335" d="M191.436,345.513c3.189,3.29,6.302,6.657,9.583,9.853
			c7.5,7.307,15.878,13.471,24.969,18.652c9.153,5.218,18.773,9.344,28.896,12.316c6.425,1.886,12.952,3.149,19.566,4.18
			c8.271,1.289,16.585,1.55,24.869,1.099c10.308-0.562,20.471-2.297,30.419-5.285c8.055-2.419,15.84-5.443,23.294-9.288
			c8.149-4.203,15.814-9.151,22.94-14.975c5.187-4.237,9.94-8.911,14.449-13.799c5.991-6.496,11.016-13.749,15.343-21.485
			c3.943-7.048,7.149-14.388,9.544-22.094c2.067-6.65,3.644-13.394,4.513-20.322c0.628-5,1.126-9.997,1.181-15.029
			c0.014-1.223,0.237-1.675,1.593-1.669c12.913,0.055,25.826,0.063,38.739-0.007c1.561-0.009,1.687,0.655,1.599,1.848
			c-0.435,5.915-0.596,11.862-1.323,17.739c-1.087,8.797-2.928,17.466-5.501,25.967c-3.15,10.405-7.329,20.391-12.493,29.94
			c-4.651,8.6-10.042,16.725-16.161,24.379c-5.023,6.285-10.391,12.238-16.195,17.792c-6.017,5.757-12.46,11.015-19.23,15.862
			c-8.794,6.297-18.116,11.709-27.934,16.231c-11.525,5.31-23.44,9.479-35.905,12.054c-3.813,0.788-7.62,1.551-11.472,2.101
			c-0.828,0.676-1.826,0.606-2.794,0.607c-14.476,0.013-28.953,0.013-43.429,0c-0.968-0.001-1.966,0.068-2.794-0.607
			c-6.495-0.886-12.877-2.31-19.205-4.007c-13.229-3.549-25.839-8.664-37.851-15.213c-9.552-5.207-18.53-11.282-27.008-18.133
			c-6.662-5.383-12.69-11.409-18.625-17.536c-1.178-1.216-2.397-2.475-3.386-3.893c-0.328-0.673,0.167-1.017,0.556-1.41
			c4.414-4.446,9.217-8.471,13.801-12.734c4.021-3.74,8.166-7.351,12.2-11.083C189.134,346.687,189.953,345.564,191.436,345.513z"/>
		<path fill-rule="evenodd" clip-rule="evenodd" fill="#F3B300" d="M191.436,345.513c-5.792,5.202-11.598,10.388-17.372,15.61
			c-3.919,3.545-7.788,7.145-11.692,10.706c-0.314,0.287-0.64,0.532-0.746,0.965c-6.822-7.695-12.721-16.052-17.9-24.925
			c-6.386-10.94-11.511-22.428-15.163-34.577c-2.202-7.324-3.872-14.745-5.009-22.308c-1.059-7.039-1.687-14.094-1.679-21.215
			c0.002-1.545,0.269-2.125,2.007-2.113c12.558,0.084,25.116,0.055,37.674,0.029c1.163-0.002,1.722,0.069,1.957,1.567
			c0.262,1.671,0.224,3.305,0.28,4.953c0.296,8.735,1.73,17.299,3.989,25.718c2.339,8.722,5.699,17.068,9.977,25.019
			c3.764,6.997,8.095,13.63,13.308,19.654C191.306,344.873,191.495,345.134,191.436,345.513z"/>
		<path fill-rule="evenodd" clip-rule="evenodd" fill="#34A753" d="M267.701,431.575c16.339,0,32.678,0,49.017,0
			c0,25.899-0.02,51.8,0.042,77.698c0.004,1.789-0.35,2.313-2.246,2.302c-14.939-0.093-29.878-0.082-44.817-0.009
			c-1.691,0.008-2.032-0.49-2.029-2.083C267.715,483.514,267.701,457.545,267.701,431.575z"/>
	</g>
</g>
</svg>
